<?xml version="1.0" standalone="no"?><!DOCTYPE svg PUBLIC "-//W3C//DTD SVG 1.1//EN" "http://www.w3.org/Graphics/SVG/1.1/DTD/svg11.dtd"><svg t="1557212946966" class="icon" style="" viewBox="0 0 1133 1024" version="1.1" xmlns="http://www.w3.org/2000/svg" p-id="2380" xmlns:xlink="http://www.w3.org/1999/xlink" width="221.2890625" height="200"><defs><style type="text/css"></style></defs><path d="M1075.176231 0H58.416598A40.663072 40.663072 0 0 0 17.77181 40.699639v942.582438c0 22.507303 18.174053 40.717923 40.644788 40.717923h186.731993a40.663072 40.663072 0 0 0 40.644788-40.717923v-73.738385c0-20.313252 16.583366-36.896618 36.95147-36.896618 20.368103 0 36.933186 16.583366 36.933185 36.896618v73.738385c0 22.507303 18.21062 40.717923 40.663072 40.717923h296.324823c22.489019 0 40.681356-18.21062 40.681355-40.717923v-73.738385c0-20.313252 16.583366-36.896618 36.914902-36.896618 20.368103 0 36.933186 16.583366 36.933186 36.896618v73.738385c0 22.507303 18.228904 40.717923 40.681355 40.717923h223.299504c22.489019 0 40.681356-18.21062 40.681356-40.717923V40.699639a40.681356 40.681356 0 0 0-40.681356-40.699639m-40.663072 942.600721h-141.991643v-33.057029c0-65.218155-53.041174-118.314181-118.25933-118.314181-65.199871 0-118.277613 53.096025-118.277613 118.314181v33.057029H441.004178v-33.057029c0-65.218155-53.041174-118.314181-118.259329-118.314181a118.405599 118.405599 0 0 0-118.277613 118.314181v33.057029H99.061386V81.417562h935.451773v861.183159zM306.106631 378.711424c0 10.1292 7.770596 18.466593 17.442703 18.466593l0.310824-0.036568c3.6019 48.671357 41.906367 97.415848 88.731064 97.415848s85.147448-48.744492 88.749349-97.415848l0.29254 0.036568c9.672107 0 17.406135-8.337392 17.406135-18.466593 0-7.532907-4.223547-13.987073-10.312038-16.875906 3.528765-10.970253 5.448559-22.635289 5.448559-34.848838 0-59.49534-45.471699-107.801021-101.584545-107.801021-56.094561 0-101.621112 48.305682-101.621112 107.801021 0 12.213549 1.919794 23.878584 5.411992 34.848838a18.64943 18.64943 0 0 0-10.275471 16.875906m-109.391708 288.535942h431.734315a9.434418 9.434418 0 0 0 9.470985-9.470985v-33.806663a9.69039 9.69039 0 0 0-2.87055-6.856409c-41.504125-40.297397-92.150127-68.710352-146.635717-82.313466a10.019498 10.019498 0 0 0-4.516088-1.133593h-4.954898a8.922473 8.922473 0 0 0-4.442952 1.133593c-16.510231 8.794486-39.054101 13.859087-61.908796 13.859086-22.83641 0-45.471699-5.0646-61.890511-13.913937a9.818377 9.818377 0 0 0-4.497804-1.078742h-3.583616a8.447095 8.447095 0 0 0-2.212335 0.237689c-55.838589 13.255723-107.764454 42.034353-150.310752 83.20937a9.507553 9.507553 0 0 0-2.833982 6.856409v33.824947c0 5.265722 4.223547 9.452701 9.452701 9.452701m504.503661-140.510659h229.534264a16.30911 16.30911 0 0 0 0-32.581652H701.218584a16.290826 16.290826 0 0 0 0 32.581652m0-128.662786h229.534264a16.272542 16.272542 0 0 0 0-32.545085H701.218584a16.254258 16.254258 0 1 0 0 32.545085" p-id="2381"></path></svg>