<?xml version="1.0" standalone="no"?><!DOCTYPE svg PUBLIC "-//W3C//DTD SVG 1.1//EN" "http://www.w3.org/Graphics/SVG/1.1/DTD/svg11.dtd"><svg t="1645111461941" class="icon" viewBox="0 0 1024 1024" version="1.1" xmlns="http://www.w3.org/2000/svg" p-id="2716" data-darkreader-inline-fill="" xmlns:xlink="http://www.w3.org/1999/xlink" width="200" height="200"><defs><style type="text/css"></style></defs><path d="M833.692444 476.444444H760.888889V281.898667c0-135.822222-104.078222-246.343111-234.140445-246.343111h-1.749333C393.955556 35.555556 277.333333 150.670222 277.333333 281.898667V476.444444h-83.640889c-15.701333 0-30.136889 12.743111-30.136888 28.444445v343.466667c0 117.745778 56.675556 140.088889 158.136888 140.088888h412.444445c116.963556 0 126.307556-38.414222 126.307555-140.088888V504.888889c0-15.701333-11.050667-28.444444-26.752-28.444445zM334.222222 281.898667C334.222222 180.977778 424.263111 92.444444 524.999111 92.444444h1.749333c96.995556 0 177.251556 86.769778 177.251556 189.454223V476.444444h-369.777778V281.898667zM734.136889 931.555556h-412.444445c-86.528 0-101.248-10.894222-101.248-83.2V533.333333h583.111112v315.022223c0 83.2 1.692444 83.2-69.418667 83.2z" fill="" p-id="2717"></path><path d="M364.359111 576h-71.111111c-7.864889 0-15.914667 6.357333-15.914667 14.222222v156.444445a14.222222 14.222222 0 1 0 28.444445 0v-142.222223h58.581333a14.222222 14.222222 0 1 0 0-28.444444zM291.555556 789.333333a14.222222 14.222222 0 0 0-14.222223 14.222223v14.222222a14.222222 14.222222 0 1 0 28.444445 0v-14.222222a14.222222 14.222222 0 0 0-14.222222-14.222223z" fill="" p-id="2718"></path></svg>