<?xml version="1.0" standalone="no"?><!DOCTYPE svg PUBLIC "-//W3C//DTD SVG 1.1//EN" "http://www.w3.org/Graphics/SVG/1.1/DTD/svg11.dtd"><svg t="1624440925808" class="icon" viewBox="0 0 1024 1024" version="1.1" xmlns="http://www.w3.org/2000/svg" p-id="1935" xmlns:xlink="http://www.w3.org/1999/xlink" width="200" height="200"><defs><style type="text/css"></style></defs><path d="M938.517333 682.666667v256H85.333333V682.666667h853.184m85.333334-85.333334H0v426.666667h1023.829333z" p-id="1936"></path><path d="M863.317333 85.333333l64 512H96.618667l64-512h702.72m75.349333-85.333333H85.461333l-85.333333 682.666667h1023.829333z" p-id="1937"></path><path d="M170.624 767.914667h384v85.333333h-384z" p-id="1938"></path><path d="M639.872 767.914667m42.666667 0l0 0q42.666667 0 42.666666 42.666666l0 0q0 42.666667-42.666666 42.666667l0 0q-42.666667 0-42.666667-42.666667l0 0q0-42.666667 42.666667-42.666666Z" p-id="1939"></path><path d="M767.872 767.914667m42.666667 0l0 0q42.666667 0 42.666666 42.666666l0 0q0 42.666667-42.666666 42.666667l0 0q-42.666667 0-42.666667-42.666667l0 0q0-42.666667 42.666667-42.666666Z" p-id="1940"></path></svg>