<?xml version="1.0" standalone="no"?><!DOCTYPE svg PUBLIC "-//W3C//DTD SVG 1.1//EN" "http://www.w3.org/Graphics/SVG/1.1/DTD/svg11.dtd"><svg t="1624442373213" class="icon" viewBox="0 0 1024 1024" version="1.1" xmlns="http://www.w3.org/2000/svg" p-id="1235" xmlns:xlink="http://www.w3.org/1999/xlink" width="200" height="200"><defs><style type="text/css"></style></defs><path d="M651.282963 915.437037c-11.093333-36.219259 3.792593-76.515556 37.925926-96.237037 34.133333-19.721481 76.420741-12.420741 102.21037 15.17037 70.731852-61.44 120.983704-145.73037 139.377778-241.398518-36.882963-8.533333-64.284444-41.528889-64.284444-80.971852 0-39.442963 27.496296-72.438519 64.284444-80.971852-18.394074-95.668148-68.645926-179.958519-139.377778-241.398518-25.78963 27.591111-68.077037 34.891852-102.21037 15.17037-34.133333-19.721481-49.019259-60.017778-37.925926-96.237037C607.573333 93.582222 560.734815 85.333333 512 85.333333s-95.668148 8.248889-139.377778 23.324445c11.093333 36.219259-3.792593 76.515556-37.925926 96.237037-34.133333 19.721481-76.420741 12.420741-102.21037-15.170371-70.731852 61.44-120.983704 145.73037-139.377778 241.398519 36.882963 8.533333 64.284444 41.528889 64.284445 80.971852 0 39.442963-27.496296 72.438519-64.284445 80.971852 18.394074 95.668148 68.645926 179.958519 139.377778 241.398518 25.78963-27.591111 68.077037-34.891852 102.21037-15.17037 34.133333 19.721481 49.019259 60.017778 37.925926 96.237037 43.614815 15.075556 90.548148 23.324444 139.282963 23.324444s95.668148-8.343704 139.377778-23.419259zM329.197037 512c0-100.977778 81.825185-182.897778 182.802963-182.897778S694.708148 411.022222 694.708148 512 612.882963 694.897778 512 694.897778 329.197037 613.072593 329.197037 512z" p-id="1236"></path></svg>