<?xml version="1.0" standalone="no"?><!DOCTYPE svg PUBLIC "-//W3C//DTD SVG 1.1//EN" "http://www.w3.org/Graphics/SVG/1.1/DTD/svg11.dtd"><svg t="1624428318843" class="icon" viewBox="0 0 1024 1024" version="1.1" xmlns="http://www.w3.org/2000/svg" p-id="875" xmlns:xlink="http://www.w3.org/1999/xlink" width="200" height="200"><defs><style type="text/css"></style></defs><path d="M910.222222 0H113.777778C51.2 0 0 51.2 0 113.777778v568.888889c0 62.577778 51.2 113.777778 113.777778 113.777777h341.333333v113.777778H284.444444c-28.444444 0-56.888889 28.444444-56.888888 56.888889s28.444444 56.888889 56.888888 56.888889h455.111112c28.444444 0 56.888889-28.444444 56.888888-56.888889s-28.444444-56.888889-56.888888-56.888889h-170.666667v-113.777778h341.333333c62.577778 0 113.777778-51.2 113.777778-113.777777V113.777778c0-62.577778-51.2-113.777778-113.777778-113.777778z m0 682.666667H113.777778V113.777778h796.444444v568.888889z" p-id="876"></path><path d="M227.555556 227.555556m-56.888889 0a56.888889 56.888889 0 1 0 113.777777 0 56.888889 56.888889 0 1 0-113.777777 0Z" p-id="877"></path><path d="M398.222222 227.555556m-56.888889 0a56.888889 56.888889 0 1 0 113.777778 0 56.888889 56.888889 0 1 0-113.777778 0Z" p-id="878"></path><path d="M568.888889 227.555556m-56.888889 0a56.888889 56.888889 0 1 0 113.777778 0 56.888889 56.888889 0 1 0-113.777778 0Z" p-id="879"></path></svg>