<?xml version="1.0" standalone="no"?><!DOCTYPE svg PUBLIC "-//W3C//DTD SVG 1.1//EN" "http://www.w3.org/Graphics/SVG/1.1/DTD/svg11.dtd"><svg t="1645172066384" class="icon" viewBox="0 0 1024 1024" version="1.1" xmlns="http://www.w3.org/2000/svg" p-id="2634" xmlns:xlink="http://www.w3.org/1999/xlink" width="200" height="200"><defs><style type="text/css"></style></defs><path d="M507.008 642.673778c-72.049778 0-130.673778-58.609778-130.673778-130.673778 0-72.049778 58.609778-130.673778 130.673778-130.673778 72.035556 0 130.673778 58.624 130.673778 130.673778 0 72.064-58.624 130.673778-130.673778 130.673778z m0-204.458667c-40.675556 0-73.784889 33.095111-73.784889 73.784889s33.095111 73.784889 73.784889 73.784889 73.784889-33.095111 73.784889-73.784889-33.095111-73.784889-73.784889-73.784889z" fill="" p-id="2635"></path><path d="M510.762667 974.222222h-2.744889c-51.911111 0-98.958222-39.082667-115.555556-93.468444a383.089778 383.089778 0 0 1-64.512-26.752c-21.304889 11.975111-44.871111 18.446222-67.939555 18.446222-29.738667 0-57.102222-10.993778-77.056-30.961778l-2.446223-2.588444c-36.138667-36.124444-41.585778-97.038222-14.705777-147.299556-10.695111-20.48-18.119111-42.325333-25.144889-65.208889-54.471111-16.455111-90.88-61.525333-90.88-112.64v-2.744889c0-51.299556 36.380444-96.64 90.794666-113.294222 7.381333-24.433778 15.687111-46.791111 26.680889-67.626666-27.633778-49.792-23.495111-108.145778 12.615111-144.270223l1.792-1.976889c20.792889-20.792889 49.692444-32.270222 81.507556-32.270222a141.795556 141.795556 0 0 1 67.086222 17.223111 383.530667 383.530667 0 0 1 60.245334-24.931555C404.750222 89.059556 452.352 49.777778 508.017778 49.777778h2.744889c54.883556 0 99.982222 38.599111 113.208889 94.222222a384.497778 384.497778 0 0 1 60.984888 25.358222 129.664 129.664 0 0 1 65.379556-17.948444c32.170667 0 62.122667 12.231111 84.352 34.446222l1.464889 1.351111c39.424 39.409778 44.145778 98.645333 14.250667 147.256889 10.382222 19.825778 20.423111 40.007111 26.979555 60.330667 55.537778 13.141333 96.853333 60.188444 96.853333 116.209777v2.744889c0 55.722667-41.329778 102.499556-96.924444 115.498667-6.229333 18.958222-15.189333 38.272-25.329778 57.770667 29.340444 48.967111 23.281778 110.791111-16.455111 150.542222l-2.076444 3.029333C812.131556 861.866667 783.616 874.666667 753.536 874.666667h0.028444c-22.769778 0-45.710222-7.808-66.218666-20.195556-20.906667 11.079111-42.709333 19.626667-65.180445 26.638222-15.402667 55.253333-59.946667 93.112889-111.402666 93.112889z m-183.893334-181.774222c4.963556 0 9.912889 1.28 14.364445 3.882667a327.537778 327.537778 0 0 0 82.204444 34.133333c10.808889 2.816 18.958222 11.719111 20.835556 22.727111 6.129778 35.968 34.119111 64.142222 63.729778 64.142222h2.744888c32.455111 0 54.300444-32.028444 59.093334-63.672889a28.401778 28.401778 0 0 1 20.906666-23.253333 327.651556 327.651556 0 0 0 83.783112-35.057778 28.444444 28.444444 0 0 1 32.455111 2.403556c14.065778 11.463111 30.620444 17.763556 46.606222 17.777778a54.570667 54.570667 0 0 0 39.367111-16.284445l1.891556-1.905778c23.523556-23.523556 23.936-62.421333 0.938666-90.467555a28.444444 28.444444 0 0 1-2.688-32.113778c15.288889-26.837333 26.396444-53.077333 33.038222-78.051555 3.086222-11.619556 14.634667-20.053333 26.624-21.048889 36.536889-3.029333 64.554667-29.084444 64.554667-61.923556v-2.744889c0-33.223111-28.032-59.576889-64.597333-62.691555-11.960889-1.009778-22.755556-9.429333-25.827556-21.034667-7.168-27.008-18.958222-54.072889-34.275555-80.412444a28.430222 28.430222 0 0 1 2.474666-32.412445c23.438222-28.401778 24.007111-63.943111 1.507556-86.442667l-1.479111-1.351111a62.421333 62.421333 0 0 0-44.757334-18.375111c-16.369778 0-32.682667 5.888-45.923555 16.554667a28.444444 28.444444 0 0 1-32.156445 2.446222 327.324444 327.324444 0 0 0-80.654222-33.493333 28.444444 28.444444 0 0 1-21.034666-24.775111c-3.541333-36.693333-28.131556-62.336-59.832889-62.336h-2.744889c-32.896 0-60.643556 26.951111-64.497778 62.677333a28.472889 28.472889 0 0 1-21.006222 24.448 327.04 327.04 0 0 0-79.104 32.583111 28.387556 28.387556 0 0 1-30.791111-1.592889c-14.378667-10.368-32.426667-16.298667-49.521778-16.298666-16.625778 0-31.331556 5.560889-41.415111 15.644444l-1.991111 1.976889c-22.755556 22.755556-15.744 60.686222 2.929777 86.385778 6.698667 9.201778 7.267556 21.518222 1.436445 31.288889-14.876444 24.96-26.183111 52.721778-34.574222 84.835555-2.801778 10.737778-10.097778 18.858667-21.034667 20.807111-36.067556 6.428444-61.781333 32.910222-61.781333 61.596445v2.744889c0 28.387556 25.685333 54.542222 61.724444 60.856888 10.965333 1.92 19.043556 10.055111 21.859556 20.835556 7.779556 29.781333 18.759111 57.557333 33.393777 82.56a28.444444 28.444444 0 0 1-1.550222 30.833778c-21.205333 29.838222-21.546667 69.589333-0.64 90.481778l2.389334 2.574222c11.192889 11.178667 25.898667 13.667556 36.181333 13.667555 16.654222 0 34.872889-6.414222 49.991111-17.564444 4.992-3.697778 10.908444-5.560889 16.853333-5.560889z" fill="" p-id="2636"></path><path d="M749.568 433.621333a14.222222 14.222222 0 0 1-13.283556-9.130666c-36.124444-94.037333-128.099556-157.212444-228.864-157.226667a14.222222 14.222222 0 1 1 0-28.444444c112.440889 0 215.096889 70.513778 255.416889 175.473777a14.236444 14.236444 0 0 1-13.269333 19.328zM269.312 638.833778a14.222222 14.222222 0 0 1-12.188444-6.883556c-2.830222-4.693333-4.096-8.163556-6.371556-14.506666-1.095111-3.000889-2.488889-6.869333-4.522667-12.188445a14.208 14.208 0 1 1 26.552889-10.197333c2.119111 5.546667 3.584 9.585778 4.707556 12.714666 2.076444 5.703111 2.673778 7.296 3.996444 9.486223a14.222222 14.222222 0 0 1-12.174222 21.575111zM501.632 780.728889a273.095111 273.095111 0 0 1-209.223111-97.322667 14.208 14.208 0 1 1 21.745778-18.332444 244.764444 244.764444 0 0 0 187.477333 87.210666 14.222222 14.222222 0 0 1 0 28.444445z" fill="" p-id="2637"></path></svg>