<?xml version="1.0" standalone="no"?><!DOCTYPE svg PUBLIC "-//W3C//DTD SVG 1.1//EN" "http://www.w3.org/Graphics/SVG/1.1/DTD/svg11.dtd"><svg t="1624435347579" class="icon" viewBox="0 0 1024 1024" version="1.1" xmlns="http://www.w3.org/2000/svg" p-id="1692" xmlns:xlink="http://www.w3.org/1999/xlink" width="200" height="200"><defs><style type="text/css"></style></defs><path d="M43.52 294.4l409.6 176.64c58.88 30.72 110.08 0 110.08 0l414.72-174.08 2.56-2.56c10.24-5.12 15.36-15.36 15.36-28.16 0-15.36-10.24-28.16-23.04-30.72L563.2 58.88c-56.32-23.04-97.28 0-97.28 0L46.08 235.52c-12.8 5.12-20.48 17.92-20.48 30.72s7.68 23.04 17.92 28.16zM512 673.28c-2.56 0-7.68 0-10.24-2.56L15.36 455.68c-12.8-5.12-17.92-20.48-12.8-33.28s20.48-17.92 33.28-12.8L512 619.52l476.16-209.92c12.8-5.12 28.16 0 33.28 12.8s0 28.16-12.8 33.28l-486.4 215.04c-2.56 2.56-7.68 2.56-10.24 2.56z m0 151.04c-2.56 0-7.68 0-10.24-2.56L15.36 606.72c-12.8-5.12-17.92-20.48-12.8-33.28 5.12-10.24 20.48-17.92 33.28-10.24L512 770.56l476.16-207.36c12.8-5.12 28.16 0 33.28 12.8s0 28.16-12.8 33.28l-486.4 215.04H512z m0 151.04c-2.56 0-7.68 0-10.24-2.56L15.36 757.76c-12.8-5.12-17.92-20.48-12.8-33.28s20.48-17.92 33.28-12.8L512 921.6l476.16-209.92c12.8-5.12 28.16 0 33.28 12.8s0 28.16-12.8 33.28l-486.4 215.04c-2.56 2.56-7.68 2.56-10.24 2.56z" p-id="1693"></path></svg>