<?xml version="1.0" standalone="no"?><!DOCTYPE svg PUBLIC "-//W3C//DTD SVG 1.1//EN" "http://www.w3.org/Graphics/SVG/1.1/DTD/svg11.dtd"><svg t="1645111453068" class="icon" viewBox="0 0 1024 1024" version="1.1" xmlns="http://www.w3.org/2000/svg" p-id="2580" data-darkreader-inline-fill="" xmlns:xlink="http://www.w3.org/1999/xlink" width="200" height="200"><defs><style type="text/css"></style></defs><path d="M535.623111 148.650667a14.222222 14.222222 0 0 0-14.222222-14.222223c-78.208 0-141.838222 63.630222-141.838222 141.838223a14.222222 14.222222 0 1 0 28.444444 0c0-62.520889 50.872889-113.393778 113.393778-113.393778a14.222222 14.222222 0 0 0 14.222222-14.222222zM388.679111 320.768a14.378667 14.378667 0 0 0 0 20.195556c2.702222 2.702222 6.257778 4.124444 10.097778 4.124444a13.653333 13.653333 0 0 0 9.955555-4.124444 14.108444 14.108444 0 0 0 4.266667-10.097778c0-3.697778-1.564444-7.395556-4.266667-10.097778-5.262222-5.262222-14.791111-5.262222-20.053333 0z" fill="" p-id="2581"></path><path d="M648.433778 555.107556c60.672-83.015111 98.403556-206.705778 98.403555-285.539556 0-128.839111-104.832-233.642667-233.656889-233.642667-128.839111 0-233.642667 104.803556-233.642666 233.642667 0 78.933333 37.816889 202.823111 98.602666 285.838222-124.387556 53.873778-208.654222 180.024889-208.654222 318.904889 0 105.585778 262.172444 113.777778 342.513778 113.777778 80.327111 0 342.513778-8.192 342.513778-113.749333 0-138.453333-83.2-264.632889-206.08-319.232z m-135.253334-462.293334c97.464889 0 176.768 79.288889 176.768 176.753778 0 110.407111-90.88 315.733333-176.768 315.733333-85.902222 0-176.753778-205.312-176.753777-315.733333 0-97.464889 79.288889-176.753778 176.753777-176.753778zM512 931.2c-197.802667 0-285.624889-41.201778-285.624889-56.888889 0-120.746667 75.861333-230.129778 186.467556-271.857778 30.023111 27.946667 64.384 42.581333 100.337777 42.581334 35.128889 0 69.304889-14.919111 99.768889-43.363556 109.539556 42.254222 184.675556 151.950222 184.675556 272.64 0 15.672889-87.836444 56.888889-285.624889 56.888889z" fill="" p-id="2582"></path></svg>